<?xml version="1.0" encoding="UTF-8"?>
<!DOCTYPE svg PUBLIC "-//W3C//DTD SVG 1.1//EN" "http://www.w3.org/Graphics/SVG/1.1/DTD/svg11.dtd">
<!-- Creator: CorelDRAW X7 -->
<svg xmlns="http://www.w3.org/2000/svg" xml:space="preserve" width="149.576mm" height="131.926mm" version="1.1" style="shape-rendering:geometricPrecision; text-rendering:geometricPrecision; image-rendering:optimizeQuality; fill-rule:evenodd; clip-rule:evenodd"
viewBox="0 0 14958 13193"
 xmlns:xlink="http://www.w3.org/1999/xlink">
 <defs>
  <style type="text/css">
   <![CDATA[
    .fil2 {fill:none}
    .fil0 {fill:#FEFEFE}
    .fil1 {fill:#042336}
    .fil3 {fill:#FEFEFE;fill-rule:nonzero}
   ]]>
  </style>
 </defs>
 <g id="Layer_x0020_1">
  <metadata id="CorelCorpID_0Corel-Layer"/>
  <g id="_2480110966032">
   <rect class="fil0" x="2052" width="10854" height="10853" rx="5427" ry="5427"/>
   <g>
    <path class="fil1" d="M5673 3657c190,-160 2027,-946 2114,-956l1243 536c318,150 219,116 637,-105 123,-65 201,-103 318,-171 99,-59 217,-132 321,-168 45,127 98,219 151,343 53,123 95,237 158,373 204,441 881,1891 923,2278 23,212 -136,388 -273,502 -217,-26 -398,-239 -558,-367l-797 -639c-499,-333 -1005,-824 -1350,-1055 -177,-118 -346,-265 -518,-370 -275,-169 -390,-70 -817,64 -218,69 -583,212 -807,236 -347,37 -672,-194 -745,-501zm-176 55c26,244 155,351 353,499 472,355 1099,14 1744,-192 320,-102 683,193 1050,519 308,274 629,489 940,742l1060 843c182,111 413,277 540,429 224,-139 617,-352 562,-860 -23,-218 -528,-1277 -657,-1589l-666 -1577c-159,31 -763,378 -976,496 -171,95 -161,111 -336,36 -110,-47 -1309,-577 -1311,-576 -148,16 -1506,648 -1870,791 -199,78 -463,165 -433,439z"/>
    <path class="fil1" d="M8225 5744c14,134 2012,1411 2214,1652 -24,199 -373,676 -509,673 -137,-3 -1639,-1260 -2110,-1507 -70,64 -65,63 -109,147l1404 1027c628,385 482,467 318,687 -81,109 -96,204 -257,253 -248,75 -904,-588 -1185,-767 -200,-127 -412,-264 -562,-443l-169 192c199,32 596,374 794,499 384,242 237,360 88,516 -165,174 -133,332 -360,156l-818 -634c-43,-33 -105,-25 -138,18 -34,43 -26,105 17,139l818 633c304,236 318,219 528,-44 102,-127 176,-283 302,-389 249,38 419,391 694,361 148,-16 550,-539 577,-717 249,-21 315,171 722,-501 65,-108 81,-113 67,-274 235,-26 262,-30 353,-223l28 -60c101,-213 200,-427 305,-639 -51,-25 -102,-50 -153,-75 -132,267 -264,534 -396,801 -260,37 -295,-130 -684,-389 -242,-178 -1628,-1219 -1759,-1239 -12,99 -28,71 -20,147z"/>
    <path class="fil1" d="M6331 8748c-96,11 -197,-107 -264,-161 -328,-264 -162,-349 61,-626 241,-299 286,-453 552,-175 259,271 293,226 -46,648 -65,80 -198,303 -303,314zm-2642 -2132l593 465c19,-19 38,-47 71,-90 516,-666 650,-623 262,-921 -293,-225 -245,-291 -665,236 -158,197 -236,227 -261,310zm-166 36c-19,-185 248,-386 355,-502 402,-440 319,-615 873,-167 64,52 117,103 178,149 252,186 141,-224 626,280 479,498 121,117 308,391 91,134 525,377 575,468 75,137 -8,119 97,247 175,214 730,366 480,730l-625 712c-99,-15 -324,-179 -419,-254 -158,-125 -241,-136 -269,-399 -196,118 -720,-323 -753,-573 -239,21 -351,-126 -491,-246 -89,-78 -102,-119 -174,-191 -135,-134 -748,-526 -761,-645zm2095 1555c-143,16 -477,-351 -525,-488 80,-154 198,-224 315,-370 388,-489 365,-339 641,-165 429,270 136,362 -53,671 -85,137 -178,331 -378,352zm-648 -621c-270,30 -508,-321 -514,-380 -12,-113 570,-785 705,-876 156,81 467,321 526,488 -89,127 -221,253 -331,391 -72,91 -88,104 -173,188 -65,64 -123,180 -213,189z"/>
    <path class="fil1" d="M3217 5158c45,420 82,549 262,921 72,148 152,278 243,387l152 -128c-80,-95 -152,-212 -216,-345 -45,-93 -86,-193 -125,-299 -60,-232 -352,-756 223,-2006 264,-575 597,-842 714,-1065l1611 241c174,24 640,89 799,85 -12,-141 217,-20 252,-121l-1576 -250c-384,-53 -756,-120 -1145,-167 -229,192 -695,871 -831,1169 -185,405 -426,995 -363,1578z"/>
    <line class="fil2" x1="3627" y1="6673" x2="4252" y2= "7163" />
   </g>
   <path class="fil3" d="M928 12651c0,16 0,30 -1,41 -1,12 -3,22 -5,30 -2,8 -4,15 -8,21 -3,5 -8,12 -15,19 -7,8 -21,17 -41,29 -21,11 -46,22 -75,33 -30,10 -63,19 -101,26 -37,7 -79,11 -123,11 -85,0 -163,-14 -232,-40 -69,-27 -128,-66 -177,-119 -48,-53 -85,-118 -111,-197 -26,-79 -39,-171 -39,-276 0,-106 14,-201 43,-284 28,-82 68,-152 119,-208 51,-57 112,-99 184,-128 71,-29 150,-44 236,-44 35,0 68,3 101,9 32,6 62,13 89,23 28,9 52,20 75,32 21,13 37,24 46,32 8,9 14,16 17,22 4,6 6,13 8,22 2,9 4,20 5,32 1,13 1,27 1,46 0,19 -1,35 -2,49 -1,14 -4,25 -7,33 -3,8 -7,14 -11,18 -5,4 -10,6 -16,6 -9,0 -22,-6 -37,-17 -14,-11 -34,-24 -57,-38 -24,-14 -52,-26 -85,-37 -32,-12 -71,-17 -116,-17 -50,0 -94,10 -133,30 -39,21 -73,50 -100,87 -27,38 -48,84 -63,138 -14,53 -21,114 -21,181 0,73 8,137 23,191 15,54 37,99 65,133 28,35 62,61 102,78 39,18 84,26 134,26 45,0 84,-5 117,-16 33,-10 61,-22 84,-35 24,-13 44,-24 59,-35 15,-10 27,-15 35,-15 7,0 12,1 15,4 4,2 8,7 10,15 3,8 5,19 6,33 1,14 2,33 2,56z"/>
   <path id="1" class="fil3" d="M2181 12366c0,74 -10,141 -29,202 -20,61 -49,113 -89,157 -39,44 -89,78 -148,102 -60,24 -129,36 -209,36 -77,0 -144,-11 -201,-32 -57,-22 -104,-53 -142,-93 -37,-41 -65,-91 -83,-151 -18,-59 -27,-127 -27,-204 0,-73 10,-141 29,-202 20,-61 50,-113 89,-157 40,-43 89,-77 148,-101 59,-24 129,-36 208,-36 78,0 145,11 202,31 57,22 104,52 141,93 38,41 65,91 84,151 18,59 27,127 27,204zm-251 10c0,-43 -3,-82 -10,-118 -7,-36 -18,-67 -35,-94 -16,-26 -37,-47 -64,-62 -27,-15 -61,-22 -102,-22 -37,0 -68,6 -96,20 -27,13 -50,32 -67,58 -18,25 -31,56 -40,92 -9,36 -13,77 -13,123 0,43 4,82 11,118 7,36 19,67 34,94 16,26 38,47 65,61 28,15 61,22 102,22 37,0 69,-7 96,-20 28,-13 50,-32 68,-58 17,-25 30,-56 39,-91 8,-36 12,-77 12,-123z"/>
   <path id="2" class="fil3" d="M3961 12808c0,6 -2,12 -6,17 -4,5 -10,9 -19,12 -10,3 -22,6 -38,7 -15,2 -35,3 -59,3 -25,0 -45,-1 -60,-3 -16,-1 -29,-4 -38,-7 -9,-3 -16,-7 -19,-12 -4,-5 -6,-11 -6,-17l0 -513c0,-29 -2,-56 -8,-80 -5,-24 -14,-44 -25,-61 -11,-18 -26,-31 -43,-40 -17,-10 -37,-14 -61,-14 -29,0 -58,11 -88,34 -30,22 -62,55 -97,98l0 576c0,6 -2,12 -6,17 -3,5 -10,9 -19,12 -10,3 -22,6 -38,7 -15,2 -35,3 -58,3 -24,0 -44,-1 -60,-3 -15,-1 -28,-4 -37,-7 -10,-3 -16,-7 -20,-12 -4,-5 -6,-11 -6,-17l0 -513c0,-29 -3,-56 -8,-80 -6,-24 -14,-44 -25,-61 -11,-18 -25,-31 -43,-40 -17,-10 -38,-14 -61,-14 -30,0 -59,11 -89,34 -30,22 -62,55 -96,98l0 576c0,6 -2,12 -6,17 -4,5 -10,9 -20,12 -9,3 -22,6 -37,7 -15,2 -35,3 -59,3 -24,0 -44,-1 -59,-3 -16,-1 -28,-4 -38,-7 -9,-3 -16,-7 -19,-12 -4,-5 -6,-11 -6,-17l0 -866c0,-7 1,-12 5,-17 3,-5 9,-9 17,-12 8,-3 19,-6 32,-8 14,-1 30,-2 50,-2 21,0 38,1 52,2 13,2 24,5 31,8 8,3 13,7 16,12 4,5 5,10 5,17l0 100c48,-52 96,-90 143,-116 48,-26 98,-39 149,-39 36,0 68,4 97,11 28,8 53,18 76,32 22,14 41,31 58,50 16,19 29,41 40,65 26,-28 52,-52 76,-72 25,-20 50,-36 74,-49 25,-12 49,-22 73,-28 24,-6 49,-9 74,-9 58,0 106,10 146,29 39,19 71,46 95,79 25,33 42,73 52,117 10,45 16,92 16,142l0 554z"/>
   <path id="3" class="fil3" d="M5279 12363c0,77 -8,146 -25,208 -17,61 -41,114 -72,157 -32,43 -71,76 -117,100 -47,23 -99,35 -158,35 -29,0 -56,-3 -81,-9 -25,-5 -49,-14 -72,-26 -23,-13 -46,-28 -68,-47 -22,-19 -45,-41 -68,-68l0 95c0,7 -2,13 -6,18 -3,5 -9,9 -17,12 -8,3 -19,5 -33,7 -13,1 -30,2 -49,2 -20,0 -37,-1 -50,-2 -14,-2 -24,-4 -32,-7 -8,-3 -14,-7 -17,-12 -3,-5 -5,-11 -5,-18l0 -1277c0,-6 2,-12 6,-17 4,-5 10,-10 20,-13 9,-4 22,-6 37,-8 16,-2 35,-3 59,-3 24,0 44,1 60,3 15,2 27,4 37,8 9,3 16,8 19,13 4,5 6,11 6,17l0 479c22,-22 44,-41 66,-56 22,-16 44,-28 66,-39 22,-9 45,-17 68,-21 23,-5 48,-7 74,-7 64,0 118,13 163,38 44,26 80,60 109,104 28,43 48,93 61,151 13,58 19,119 19,183zm-252 17c0,-37 -3,-72 -8,-106 -6,-35 -15,-65 -29,-91 -13,-27 -31,-48 -53,-63 -21,-16 -49,-24 -82,-24 -16,0 -32,2 -47,6 -16,5 -32,13 -48,24 -17,11 -34,25 -51,42 -18,18 -36,39 -56,65l0 287c35,44 68,77 99,100 31,23 64,34 99,34 31,0 58,-8 80,-24 22,-16 40,-37 55,-63 14,-26 25,-55 31,-88 7,-33 10,-66 10,-99z"/>
   <path id="4" class="fil3" d="M5929 12808c0,6 -2,12 -6,17 -4,5 -11,9 -20,12 -9,3 -22,6 -37,7 -16,2 -36,3 -59,3 -24,0 -44,-1 -60,-3 -15,-1 -28,-4 -37,-7 -9,-3 -16,-7 -20,-12 -4,-5 -6,-11 -6,-17l0 -864c0,-7 2,-12 6,-17 4,-5 11,-10 20,-13 9,-3 22,-6 37,-8 16,-2 36,-3 60,-3 23,0 43,1 59,3 15,2 28,5 37,8 9,3 16,8 20,13 4,5 6,10 6,17l0 864zm20 -1160c0,49 -10,83 -31,102 -20,18 -57,28 -111,28 -55,0 -93,-9 -112,-27 -19,-19 -29,-51 -29,-98 0,-50 10,-84 30,-103 20,-19 57,-29 112,-29 55,0 92,10 111,28 20,18 30,51 30,99z"/>
   <path id="5" class="fil3" d="M7208 12808c0,6 -2,12 -6,17 -4,5 -10,9 -19,12 -9,3 -22,6 -38,7 -16,2 -35,3 -59,3 -24,0 -44,-1 -60,-3 -15,-1 -28,-4 -37,-7 -9,-3 -16,-7 -20,-12 -3,-5 -5,-11 -5,-17l0 -494c0,-42 -3,-75 -10,-99 -6,-24 -15,-44 -26,-61 -12,-18 -27,-31 -45,-40 -19,-10 -40,-14 -65,-14 -31,0 -62,11 -94,34 -31,22 -64,55 -98,98l0 576c0,6 -2,12 -6,17 -4,5 -11,9 -20,12 -9,3 -22,6 -37,7 -16,2 -36,3 -59,3 -24,0 -44,-1 -60,-3 -15,-1 -28,-4 -37,-7 -9,-3 -16,-7 -20,-12 -4,-5 -6,-11 -6,-17l0 -866c0,-7 2,-12 5,-17 3,-5 9,-9 17,-12 9,-3 20,-6 33,-8 13,-1 30,-2 50,-2 21,0 38,1 51,2 14,2 24,5 32,8 7,3 13,7 16,12 3,5 5,10 5,17l0 100c48,-52 96,-90 146,-116 49,-26 101,-39 155,-39 59,0 108,10 149,29 40,19 73,46 98,79 25,33 42,73 53,117 11,45 17,99 17,161l0 535z"/>
   <path id="6" class="fil3" d="M8394 12811c0,9 -4,16 -10,21 -6,6 -17,9 -31,11 -14,3 -34,4 -62,4 -29,0 -50,-1 -63,-4 -13,-2 -23,-5 -28,-11 -6,-5 -9,-12 -9,-21l0 -69c-35,38 -76,68 -121,89 -46,21 -96,32 -152,32 -46,0 -88,-6 -127,-18 -38,-12 -71,-30 -99,-54 -28,-23 -50,-52 -66,-87 -15,-35 -23,-76 -23,-122 0,-51 10,-95 29,-132 20,-37 50,-68 89,-92 39,-25 87,-42 146,-54 58,-12 125,-18 202,-18l84 0 0 -52c0,-27 -2,-51 -8,-71 -5,-21 -14,-38 -27,-51 -13,-14 -29,-24 -50,-31 -21,-6 -47,-9 -78,-9 -41,0 -77,4 -109,13 -32,9 -60,20 -85,31 -25,10 -45,21 -62,30 -16,9 -29,13 -40,13 -7,0 -13,-2 -19,-6 -5,-5 -10,-12 -13,-20 -4,-8 -6,-19 -8,-31 -2,-12 -3,-26 -3,-40 0,-21 1,-37 5,-48 3,-12 9,-22 18,-32 9,-9 25,-19 47,-30 23,-12 49,-22 80,-32 30,-10 64,-18 99,-24 36,-6 74,-9 112,-9 68,0 125,7 174,20 48,13 88,34 118,61 32,28 54,63 69,106 14,44 21,95 21,154l0 583zm-241 -372l-93 0c-39,0 -73,3 -100,9 -28,6 -51,15 -68,27 -18,11 -30,25 -38,42 -9,16 -13,35 -13,56 0,37 12,65 35,86 23,21 54,31 95,31 34,0 66,-9 95,-26 28,-18 58,-43 87,-77l0 -148z"/>
   <path id="7" class="fil3" d="M9667 12808c0,7 -2,13 -5,18 -3,5 -8,9 -16,12 -8,3 -19,5 -32,7 -13,1 -29,2 -49,2 -20,0 -37,-1 -50,-2 -13,-2 -23,-4 -32,-7 -8,-3 -14,-7 -17,-12 -4,-5 -6,-11 -6,-18l0 -97c-44,48 -91,85 -140,112 -49,26 -103,40 -162,40 -66,0 -122,-13 -168,-39 -45,-25 -82,-60 -111,-103 -29,-43 -50,-94 -63,-152 -13,-58 -19,-119 -19,-183 0,-76 8,-146 25,-207 16,-61 40,-114 72,-157 32,-44 71,-77 118,-100 47,-23 102,-35 163,-35 49,0 93,10 132,29 40,20 79,49 118,87l0 -468c0,-6 1,-12 5,-17 4,-5 10,-10 19,-13 10,-4 22,-6 38,-8 15,-2 35,-3 59,-3 24,0 44,1 59,3 15,2 28,4 37,8 9,3 15,8 19,13 4,5 6,11 6,17l0 1273zm-242 -579c-35,-44 -69,-77 -101,-101 -32,-23 -65,-34 -100,-34 -32,0 -59,8 -82,24 -23,15 -42,36 -55,63 -14,27 -25,56 -32,89 -7,32 -10,66 -10,100 0,36 3,71 9,106 6,34 15,64 29,91 13,27 30,49 53,65 21,16 49,24 83,24 17,0 33,-2 49,-7 16,-5 32,-13 48,-24 17,-11 34,-25 51,-43 18,-18 37,-40 58,-65l0 -288z"/>
   <path id="8" class="fil3" d="M10996 12366c0,74 -10,141 -29,202 -20,61 -49,113 -89,157 -39,44 -88,78 -148,102 -60,24 -129,36 -209,36 -77,0 -144,-11 -201,-32 -57,-22 -104,-53 -141,-93 -38,-41 -66,-91 -84,-151 -18,-59 -27,-127 -27,-204 0,-73 10,-141 29,-202 20,-61 50,-113 90,-157 39,-43 88,-77 148,-101 59,-24 128,-36 208,-36 77,0 145,11 202,31 57,22 104,52 141,93 37,41 65,91 83,151 18,59 27,127 27,204zm-250 10c0,-43 -4,-82 -11,-118 -7,-36 -18,-67 -34,-94 -17,-26 -38,-47 -65,-62 -27,-15 -61,-22 -102,-22 -36,0 -68,6 -96,20 -27,13 -49,32 -67,58 -18,25 -31,56 -39,92 -9,36 -14,77 -14,123 0,43 4,82 11,118 7,36 19,67 35,94 16,26 37,47 65,61 27,15 61,22 101,22 37,0 69,-7 97,-20 27,-13 49,-32 67,-58 18,-25 30,-56 39,-91 8,-36 13,-77 13,-123z"/>
   <path id="9" class="fil3" d="M12441 12746c8,23 13,42 15,55 2,14 -1,24 -8,31 -7,7 -20,11 -38,12 -18,2 -43,3 -74,3 -34,0 -59,-1 -78,-2 -18,-1 -32,-2 -42,-5 -10,-3 -16,-7 -20,-13 -4,-5 -8,-12 -10,-20l-82 -252 -474 0 -79 245c-3,9 -6,17 -10,23 -4,6 -11,11 -21,15 -9,3 -22,5 -39,7 -18,1 -40,2 -68,2 -30,0 -53,-1 -70,-3 -17,-2 -28,-7 -35,-14 -6,-8 -8,-18 -6,-32 2,-13 6,-31 14,-54l387 -1115c4,-11 8,-20 14,-26 4,-7 13,-12 24,-16 12,-3 27,-6 47,-7 20,-1 47,-1 80,-1 38,0 68,0 91,1 23,1 40,4 53,7 13,4 21,9 27,16 5,7 10,17 14,29l388 1114zm-576 -922l-1 0 -175 534 352 0 -176 -534z"/>
   <path id="10" class="fil3" d="M13682 12362c0,77 -8,147 -25,208 -16,62 -40,115 -72,158 -31,43 -71,76 -118,100 -47,23 -101,35 -162,35 -25,0 -48,-3 -69,-8 -21,-5 -41,-12 -61,-22 -20,-10 -39,-22 -59,-37 -19,-15 -39,-33 -60,-53l0 408c0,6 -2,12 -6,17 -3,5 -10,10 -19,13 -10,4 -22,7 -38,9 -15,2 -35,3 -59,3 -24,0 -44,-1 -59,-3 -15,-2 -28,-5 -37,-9 -10,-3 -16,-8 -20,-13 -4,-5 -6,-11 -6,-17l0 -1209c0,-7 2,-12 5,-17 3,-5 9,-9 17,-12 8,-3 18,-6 32,-8 13,-1 30,-2 50,-2 19,0 35,1 49,2 13,2 24,5 32,8 8,3 13,7 17,12 3,5 5,10 5,17l0 102c25,-26 49,-49 74,-68 24,-20 48,-36 74,-50 25,-13 51,-23 78,-29 27,-7 55,-10 86,-10 63,0 117,13 162,37 44,25 80,59 109,103 28,43 48,94 61,151 13,57 19,119 19,184zm-254 17c0,-37 -3,-72 -8,-106 -6,-34 -15,-64 -28,-90 -14,-27 -31,-48 -52,-63 -22,-16 -49,-24 -81,-24 -17,0 -32,2 -48,7 -16,5 -32,13 -49,24 -16,11 -33,25 -50,42 -18,18 -36,39 -56,65l0 285c34,43 67,76 98,100 31,23 63,35 97,35 32,0 58,-8 81,-24 22,-16 40,-38 54,-63 14,-27 25,-56 32,-89 7,-33 10,-66 10,-99z"/>
   <path id="11" class="fil3" d="M14958 12362c0,77 -9,147 -25,208 -16,62 -41,115 -72,158 -32,43 -71,76 -118,100 -48,23 -102,35 -162,35 -25,0 -49,-3 -70,-8 -21,-5 -41,-12 -61,-22 -19,-10 -39,-22 -58,-37 -20,-15 -40,-33 -60,-53l0 408c0,6 -2,12 -6,17 -4,5 -11,10 -20,13 -9,4 -22,7 -37,9 -16,2 -36,3 -60,3 -23,0 -43,-1 -59,-3 -15,-2 -28,-5 -37,-9 -10,-3 -16,-8 -20,-13 -4,-5 -6,-11 -6,-17l0 -1209c0,-7 2,-12 5,-17 3,-5 9,-9 17,-12 8,-3 19,-6 32,-8 13,-1 30,-2 50,-2 19,0 36,1 49,2 13,2 24,5 32,8 8,3 14,7 17,12 3,5 5,10 5,17l0 102c25,-26 50,-49 74,-68 24,-20 49,-36 74,-50 25,-13 51,-23 78,-29 27,-7 55,-10 86,-10 63,0 117,13 162,37 44,25 81,59 109,103 28,43 48,94 61,151 13,57 20,119 20,184zm-255 17c0,-37 -2,-72 -8,-106 -5,-34 -15,-64 -28,-90 -13,-27 -31,-48 -52,-63 -22,-16 -49,-24 -81,-24 -16,0 -32,2 -48,7 -16,5 -32,13 -48,24 -17,11 -34,25 -51,42 -18,18 -36,39 -55,65l0 285c34,43 67,76 97,100 31,23 64,35 97,35 32,0 59,-8 81,-24 22,-16 41,-38 55,-63 14,-27 24,-56 31,-89 7,-33 10,-66 10,-99z"/>
  </g>
 </g>
</svg>
